<?xml version="1.0" encoding="utf-8"?><!-- Uploaded to: SVG Repo, www.svgrepo.com, Generator: SVG Repo Mixer Tools -->
<svg width="800px" height="800px" viewBox="0 0 24 24" fill="none" xmlns="http://www.w3.org/2000/svg">
<path opacity="0.5" d="M3.46447 3.46447C2 4.92893 2 7.28595 2 12C2 16.714 2 19.0711 3.46447 20.5355C4.92893 22 7.28595 22 12 22C16.714 22 19.0711 22 20.5355 20.5355C22 19.0711 22 16.714 22 12C22 7.28595 22 4.92893 20.5355 3.46447C19.0711 2 16.714 2 12 2C7.28595 2 4.92893 2 3.46447 3.46447Z" fill="#1C274C"/>

<path d="M19 13.25C19.4142 13.25 19.75 13.5858 19.75 14V14.0537V14.0537C19.75 15.1865 19.75 16.1123 19.6518 16.8431C19.5491 17.6071 19.3268 18.2694 18.7981 18.7981C18.2694 19.3268 17.6071 19.5491 16.8431 19.6518C16.1123 19.75 15.1866 19.75 14.0538 19.75H14.0538H14C13.5858 19.75 13.25 19.4142 13.25 19C13.25 18.5858 13.5858 18.25 14 18.25C15.1997 18.25 16.0241 18.2484 16.6432 18.1652C17.2409 18.0848 17.5339 17.941 17.7374 17.7374C17.941 17.5339 18.0848 17.2409 18.1652 16.6432C18.2484 16.0241 18.25 15.1997 18.25 14C18.25 13.5858 18.5858 13.25 19 13.25Z" fill="#1C274C"/>
<path d="M5.75 14C5.75 13.5858 5.41422 13.25 5 13.25C4.58579 13.25 4.25 13.5858 4.25 14V14.0537V14.0537C4.24998 15.1865 4.24996 16.1123 4.34822 16.8431C4.45093 17.6071 4.67321 18.2694 5.2019 18.7981C5.7306 19.3268 6.39293 19.5491 7.15689 19.6518C7.88773 19.75 8.81343 19.75 9.94622 19.75H9.94624H10C10.4142 19.75 10.75 19.4142 10.75 19C10.75 18.5858 10.4142 18.25 10 18.25C8.80029 18.25 7.97595 18.2484 7.35676 18.1652C6.75914 18.0848 6.4661 17.941 6.26256 17.7374C6.05902 17.5339 5.91519 17.2409 5.83484 16.6432C5.75159 16.0241 5.75 15.1997 5.75 14Z" fill="#1C274C"/>
<path d="M9.94631 4.25H10C10.4142 4.25 10.75 4.58579 10.75 5C10.75 5.41422 10.4142 5.75 10 5.75C8.80029 5.75 7.97595 5.75159 7.35676 5.83484C6.75914 5.91519 6.4661 6.05902 6.26256 6.26256C6.05902 6.4661 5.91519 6.75914 5.83484 7.35676C5.75159 7.97595 5.75 8.80029 5.75 10C5.75 10.4142 5.41422 10.75 5 10.75C4.58579 10.75 4.25 10.4142 4.25 10V9.94631V9.94629C4.24998 8.81347 4.24996 7.88774 4.34822 7.15689C4.45093 6.39294 4.67321 5.7306 5.2019 5.2019C5.7306 4.67321 6.39294 4.45093 7.15689 4.34822C7.88774 4.24996 8.81347 4.24998 9.94629 4.25H9.94631Z" fill="#1C274C"/>
<path d="M14 5.75C15.1997 5.75 16.0241 5.75159 16.6432 5.83484C17.2409 5.91519 17.5339 6.05902 17.7374 6.26256C17.941 6.4661 18.0848 6.75914 18.1652 7.35676C18.2484 7.97595 18.25 8.80029 18.25 10C18.25 10.4142 18.5858 10.75 19 10.75C19.4142 10.75 19.75 10.4142 19.75 10V9.94631V9.94629C19.75 8.81348 19.75 7.88774 19.6518 7.15689C19.5491 6.39293 19.3268 5.7306 18.7981 5.2019C18.2694 4.67321 17.6071 4.45093 16.8431 4.34822C16.1123 4.24996 15.1865 4.24998 14.0537 4.25H14.0537H14C13.5858 4.25 13.25 4.58579 13.25 5C13.25 5.41422 13.5858 5.75 14 5.75Z" fill="#1C274C"/>
</svg>