<svg width="25" height="24" viewBox="0 0 25 24" fill="none" xmlns="http://www.w3.org/2000/svg">
<path fill-rule="evenodd" clip-rule="evenodd" d="M19.527 11.2C19.7392 11.2 19.9427 11.2843 20.0927 11.4343C20.4051 11.7467 20.4051 12.2532 20.0927 12.5656C19.9426 12.7156 19.7392 12.8 19.527 12.8L12.8417 12.8L12.8417 19.4853C12.8417 19.6975 12.7575 19.901 12.6075 20.051C12.2951 20.3634 11.7885 20.3634 11.4761 20.051C11.3261 19.901 11.2418 19.6975 11.2418 19.4853L11.2418 12.8001L4.55645 12.8001C4.34428 12.8001 4.14076 12.7157 3.99073 12.5657C3.67832 12.2533 3.6784 11.7467 3.99082 11.4343C4.14085 11.2843 4.34428 11.2001 4.55645 11.2001L11.2418 11.2L11.2418 4.51481C11.2418 4.30263 11.326 4.09903 11.476 3.949C11.7884 3.63658 12.295 3.63658 12.6074 3.949C12.7574 4.09903 12.8417 4.30255 12.8417 4.51472L12.8417 11.2L19.527 11.2Z" fill="white"/>
</svg>
