<svg width="24" height="25" viewBox="0 0 24 25" fill="none" xmlns="http://www.w3.org/2000/svg">
<path fill-rule="evenodd" clip-rule="evenodd" d="M4.7 10.5416C4.7 6.50995 7.96832 3.24163 12 3.24163C16.0317 3.24163 19.3 6.50995 19.3 10.5416V16.2416H20C20.4418 16.2416 20.8 16.5998 20.8 17.0416C20.8 17.4835 20.4418 17.8416 20 17.8416H4C3.55818 17.8416 3.2 17.4835 3.2 17.0416C3.2 16.5998 3.55818 16.2416 4 16.2416H4.7V10.5416ZM6.3 10.5416V16.2416H17.7V10.5416C17.7 7.3936 15.148 4.84163 12 4.84163C8.85198 4.84163 6.3 7.3936 6.3 10.5416Z" fill="white"/>
<path d="M14 20.8416C14.4418 20.8416 14.8 20.4835 14.8 20.0416C14.8 19.5998 14.4418 19.2416 14 19.2416H10C9.55818 19.2416 9.2 19.5998 9.2 20.0416C9.2 20.4835 9.55818 20.8416 10 20.8416H14Z" fill="white"/>
</svg>
