<svg width="25" height="24" viewBox="0 0 25 24" fill="none" xmlns="http://www.w3.org/2000/svg">
<path fill-rule="evenodd" clip-rule="evenodd" d="M17.4759 5.43427C17.626 5.28424 17.8295 5.19995 18.0416 5.19995C18.4835 5.19995 18.8416 5.55812 18.8416 5.99995C18.8416 6.21212 18.7573 6.41561 18.6073 6.56564L13.173 11.9999L18.6073 17.4343C18.7574 17.5843 18.8416 17.7878 18.8416 18C18.8416 18.4418 18.4835 18.8 18.0416 18.8C17.8295 18.8 17.626 18.7157 17.476 18.5656L12.0416 13.1313L6.60731 18.5656C6.45728 18.7157 6.2538 18.8 6.04162 18.8C5.5998 18.8 5.24162 18.4418 5.24162 18C5.24162 17.7878 5.32591 17.5843 5.47594 17.4343L10.9103 11.9999L5.47595 6.56564C5.32592 6.41561 5.24164 6.21212 5.24164 5.99995C5.24164 5.55812 5.59981 5.19995 6.04164 5.19995C6.25381 5.19995 6.45729 5.28424 6.60732 5.43427L12.0416 10.8686L17.4759 5.43427Z" fill="white"/>
</svg>
