<svg width="24" height="25" viewBox="0 0 24 25" fill="none" xmlns="http://www.w3.org/2000/svg">
<path fill-rule="evenodd" clip-rule="evenodd" d="M11.3 3.24162C6.71604 3.24162 3.00001 6.95766 3.00001 11.5416C3.00001 16.1256 6.71604 19.8416 11.3 19.8416C13.4314 19.8416 15.3751 19.0383 16.8449 17.7179L19.7343 20.6073C20.0467 20.9197 20.5533 20.9197 20.8657 20.6073C21.1781 20.2949 21.1781 19.7884 20.8657 19.4759L17.9281 16.5383C18.9776 15.1483 19.6 13.4176 19.6 11.5416C19.6 6.95766 15.884 3.24162 11.3 3.24162ZM4.60001 11.5416C4.60001 7.84132 7.5997 4.84163 11.3 4.84163C15.0003 4.84163 18 7.84132 18 11.5416C18 15.2419 15.0003 18.2416 11.3 18.2416C7.5997 18.2416 4.60001 15.2419 4.60001 11.5416Z" fill="white"/>
</svg>
