<svg width="24" height="25" viewBox="0 0 24 25" fill="none" xmlns="http://www.w3.org/2000/svg">
<path fill-rule="evenodd" clip-rule="evenodd" d="M19.5 5.84162C19.9418 5.84162 20.3 5.48345 20.3 5.04162C20.3 4.5998 19.9418 4.24162 19.5 4.24162L4.5 4.24162C4.05817 4.24162 3.7 4.5998 3.7 5.04162C3.7 5.48345 4.05817 5.84162 4.5 5.84162L19.5 5.84162ZM11 12.8416C11.4418 12.8416 11.8 12.4835 11.8 12.0416C11.8 11.5998 11.4418 11.2416 11 11.2416L4.5 11.2416C4.05817 11.2416 3.7 11.5998 3.7 12.0416C3.7 12.4835 4.05817 12.8416 4.5 12.8416H11ZM11.8 19.0416C11.8 19.4835 11.4418 19.8416 11 19.8416H4.5C4.05817 19.8416 3.7 19.4835 3.7 19.0416C3.7 18.5998 4.05817 18.2416 4.5 18.2416H11C11.4418 18.2416 11.8 18.5998 11.8 19.0416ZM16.8 8.54163C16.8 8.0998 16.4418 7.74163 16 7.74163C15.5582 7.74163 15.2 8.0998 15.2 8.54163L15.2 19.0416C15.2 19.3652 15.3949 19.6569 15.6939 19.7807C15.9928 19.9046 16.3369 19.8361 16.5657 19.6073L20.5657 15.6073C20.8781 15.2949 20.8781 14.7884 20.5657 14.4759C20.2533 14.1635 19.7467 14.1635 19.4343 14.4759L16.8 17.1103V8.54163Z" fill="white"/>
</svg>
