
<svg width="12" height="12" viewBox="0 0 12 12" fill="none" xmlns="http://www.w3.org/2000/svg">
<g id="arrow-up 1">
<g id="Layer 47">
<path id="Vector" d="M0.528755 9.20251L5.77875 2.45251C5.80604 2.42047 5.83995 2.39475 5.87815 2.37711C5.91635 2.35946 5.95793 2.35033 6 2.35033C6.04208 2.35033 6.08366 2.35946 6.12186 2.37711C6.16006 2.39475 6.19397 2.42047 6.22125 2.45251L11.4713 9.20251C11.504 9.24385 11.5243 9.2936 11.53 9.34603C11.5356 9.39845 11.5263 9.4514 11.5031 9.49876C11.4798 9.54595 11.4437 9.5857 11.399 9.61352C11.3543 9.64135 11.3027 9.65614 11.25 9.65626H0.750006C0.69734 9.65614 0.645749 9.64135 0.601033 9.61352C0.556317 9.5857 0.520248 9.54595 0.496881 9.49876C0.473697 9.4514 0.464387 9.39845 0.470027 9.34603C0.475668 9.2936 0.496028 9.24385 0.528755 9.20251Z" fill="#34C759"/>
</g>
</g>
</svg>
