<svg xmlns="http://www.w3.org/2000/svg" width="133" height="155" viewBox="0 0 133 155" fill="none">
<g style="mix-blend-mode:color-burn" opacity="0.1">
<path d="M62.4167 -0.699865L61.8563 -1.25773C60.8535 -2.2557 59.4935 -2.81634 58.0754 -2.81634C56.6574 -2.81634 55.2974 -2.2557 54.2946 -1.25773L18.0021 34.8662C17.0012 35.8671 16.4393 37.2219 16.4393 38.6341C16.4393 40.0464 17.0012 41.4011 18.0021 42.402L18.5626 42.9507C19.0586 43.446 19.6478 43.8389 20.2966 44.107C20.9454 44.3751 21.641 44.5131 22.3435 44.5131C23.046 44.5131 23.7416 44.3751 24.3904 44.107C25.0392 43.8389 25.6284 43.446 26.1243 42.9507L37.3244 31.8026C38.33 30.8063 39.6911 30.2469 41.1099 30.2469C42.5287 30.2469 43.8897 30.8063 44.8953 31.8026L45.4466 32.3604C46.4492 33.3586 47.0124 34.7123 47.0124 36.1237C47.0124 37.5352 46.4492 38.8889 45.4466 39.887L4.38564 80.7574C2.99551 82.1371 1.89253 83.7763 1.13997 85.581C0.387408 87.3857 0 89.3205 0 91.2745C0 93.2285 0.387408 95.1634 1.13997 96.9681C1.89253 98.7728 2.99551 100.412 4.38564 101.792C5.77238 103.174 7.41937 104.271 9.23242 105.019C11.0455 105.768 12.989 106.153 14.9518 106.153C16.9146 106.153 18.858 105.768 20.6711 105.019C22.4842 104.271 24.1312 103.174 25.5179 101.792L38.1789 89.1894C39.1817 88.1914 40.5417 87.6308 41.9597 87.6308C43.3778 87.6308 44.7378 88.1914 45.7406 89.1894L46.3011 89.7473C47.3037 90.7454 47.8669 92.0991 47.8669 93.5106C47.8669 94.922 47.3037 96.2757 46.3011 97.2739L42.8188 100.74C41.4276 102.119 40.3236 103.758 39.5704 105.563C38.8171 107.368 38.4294 109.303 38.4294 111.257C38.4294 113.211 38.8171 115.147 39.5704 116.951C40.3236 118.756 41.4276 120.395 42.8188 121.774L49.0207 127.956C49.5182 128.45 49.913 129.037 50.1824 129.682C50.4517 130.328 50.5904 131.02 50.5904 131.72C50.5904 132.419 50.4517 133.111 50.1824 133.757C49.913 134.403 49.5182 134.989 49.0207 135.483L38.9783 145.36C38.4807 145.854 38.0859 146.44 37.8166 147.086C37.5472 147.732 37.4086 148.424 37.4086 149.123C37.4086 149.822 37.5472 150.515 37.8166 151.161C38.0859 151.806 38.4807 152.393 38.9783 152.887L39.5296 153.444C40.5351 154.441 41.8962 155 43.315 155C44.7338 155 46.0949 154.441 47.1004 153.444L100.032 100.758C101.033 99.7574 101.595 98.4026 101.595 96.9903C101.595 95.5781 101.033 94.2234 100.032 93.2225C99.5347 92.7289 99.1399 92.1424 98.8705 91.4966C98.6012 90.8508 98.4625 90.1584 98.4625 89.4592C98.4625 88.76 98.6012 88.0676 98.8705 87.4218C99.1399 86.776 99.5347 86.1895 100.032 85.6959L128.607 57.2448C129.999 55.8664 131.104 54.2276 131.858 52.4227C132.612 50.6178 133 48.6824 133 46.7277C133 44.773 132.612 42.8376 131.858 41.0327C131.104 39.2278 129.999 37.5891 128.607 36.2106C127.221 34.8269 125.574 33.7291 123.761 32.98C121.948 32.231 120.004 31.8454 118.041 31.8454C116.077 31.8454 114.134 32.231 112.321 32.98C110.507 33.7291 108.861 34.8269 107.474 36.2106L103.799 39.8687C102.796 40.8667 101.436 41.4274 100.018 41.4274C98.6004 41.4274 97.2404 40.8667 96.2376 39.8687L95.6771 39.3109C94.6745 38.3127 94.1112 36.9591 94.1112 35.5476C94.1112 34.1361 94.6745 32.7824 95.6771 31.7843L111.297 16.2373C112.686 14.857 113.788 13.2176 114.54 11.4129C115.291 9.6083 115.678 7.67381 115.678 5.72015C115.678 3.76648 115.291 1.83199 114.54 0.0273533C113.788 -1.77729 112.686 -3.41666 111.297 -4.79696L104.525 -11.5279C103.524 -12.5288 102.962 -13.8835 102.962 -15.2958C102.962 -16.708 103.524 -18.0627 104.525 -19.0636L105.83 -20.3531C106.831 -21.354 107.393 -22.7088 107.393 -24.121C107.393 -25.5332 106.831 -26.888 105.83 -27.8889L105.269 -28.4376C104.773 -28.9328 104.184 -29.3258 103.535 -29.5939C102.887 -29.862 102.191 -30 101.489 -30C100.786 -30 100.09 -29.862 99.4417 -29.5939C98.7929 -29.3258 98.2036 -28.9328 97.7076 -28.4376L69.859 -0.727299C68.865 0.238499 67.5325 0.781422 66.1434 0.786541C64.7544 0.791662 63.4179 0.258579 62.4167 -0.699865Z" fill="#C1B9B9"/>
</g>
</svg>