<svg xmlns="http://www.w3.org/2000/svg" width="153" height="55" viewBox="0 0 153 55" fill="none">
  <g style="mix-blend-mode:overlay" opacity="0.2" clip-path="url(#clip0_280_282)">
    <path d="M20.487 2.75123C21.2418 2.75123 21.8537 2.13534 21.8537 1.37561C21.8537 0.615883 21.2418 0 20.487 0C19.7323 0 19.1204 0.615883 19.1204 1.37561C19.1204 2.13534 19.7323 2.75123 20.487 2.75123Z" fill="#C1B9B9"/>
    <path d="M35.0683 2.75123C35.8231 2.75123 36.435 2.13534 36.435 1.37561C36.435 0.615883 35.8231 0 35.0683 0C34.3136 0 33.7017 0.615883 33.7017 1.37561C33.7017 2.13534 34.3136 2.75123 35.0683 2.75123Z" fill="#C1B9B9"/>
    <path d="M49.6375 2.75123C50.3922 2.75123 51.0041 2.13534 51.0041 1.37561C51.0041 0.615883 50.3922 0 49.6375 0C48.8827 0 48.2708 0.615883 48.2708 1.37561C48.2708 2.13534 48.8827 2.75123 49.6375 2.75123Z" fill="#C1B9B9"/>
    <path d="M64.2066 2.75123C64.9613 2.75123 65.5732 2.13534 65.5732 1.37561C65.5732 0.615883 64.9613 0 64.2066 0C63.4518 0 62.8399 0.615883 62.8399 1.37561C62.8399 2.13534 63.4518 2.75123 64.2066 2.75123Z" fill="#C1B9B9"/>
    <path d="M78.7757 2.75123C79.5304 2.75123 80.1423 2.13534 80.1423 1.37561C80.1423 0.615883 79.5304 0 78.7757 0C78.0209 0 77.4091 0.615883 77.4091 1.37561C77.4091 2.13534 78.0209 2.75123 78.7757 2.75123Z" fill="#C1B9B9"/>
    <path d="M93.3448 2.75123C94.0995 2.75123 94.7114 2.13534 94.7114 1.37561C94.7114 0.615883 94.0995 0 93.3448 0C92.59 0 91.9781 0.615883 91.9781 1.37561C91.9781 2.13534 92.59 2.75123 93.3448 2.75123Z" fill="#C1B9B9"/>
    <path d="M107.926 2.75123C108.681 2.75123 109.293 2.13534 109.293 1.37561C109.293 0.615883 108.681 0 107.926 0C107.171 0 106.559 0.615883 106.559 1.37561C106.559 2.13534 107.171 2.75123 107.926 2.75123Z" fill="#C1B9B9"/>
    <path d="M122.495 2.75123C123.25 2.75123 123.862 2.13534 123.862 1.37561C123.862 0.615883 123.25 0 122.495 0C121.74 0 121.129 0.615883 121.129 1.37561C121.129 2.13534 121.74 2.75123 122.495 2.75123Z" fill="#C1B9B9"/>
    <path d="M137.064 2.75123C137.819 2.75123 138.431 2.13534 138.431 1.37561C138.431 0.615883 137.819 0 137.064 0C136.31 0 135.698 0.615883 135.698 1.37561C135.698 2.13534 136.31 2.75123 137.064 2.75123Z" fill="#C1B9B9"/>
    <path d="M151.633 2.75123C152.388 2.75123 153 2.13534 153 1.37561C153 0.615883 152.388 0 151.633 0C150.879 0 150.267 0.615883 150.267 1.37561C150.267 2.13534 150.879 2.75123 151.633 2.75123Z" fill="#C1B9B9"/>
    <path d="M1.36662 20.1675C2.12138 20.1675 2.73323 19.5516 2.73323 18.7919C2.73323 18.0321 2.12138 17.4163 1.36662 17.4163C0.611855 17.4163 0 18.0321 0 18.7919C0 19.5516 0.611855 20.1675 1.36662 20.1675Z" fill="#C1B9B9"/>
    <path d="M15.9357 20.1675C16.6905 20.1675 17.3023 19.5516 17.3023 18.7919C17.3023 18.0321 16.6905 17.4163 15.9357 17.4163C15.1809 17.4163 14.5691 18.0321 14.5691 18.7919C14.5691 19.5516 15.1809 20.1675 15.9357 20.1675Z" fill="#C1B9B9"/>
    <path d="M30.5048 20.1675C31.2596 20.1675 31.8714 19.5516 31.8714 18.7919C31.8714 18.0321 31.2596 17.4163 30.5048 17.4163C29.7501 17.4163 29.1382 18.0321 29.1382 18.7919C29.1382 19.5516 29.7501 20.1675 30.5048 20.1675Z" fill="#C1B9B9"/>
    <path d="M45.0861 20.1675C45.8409 20.1675 46.4527 19.5516 46.4527 18.7919C46.4527 18.0321 45.8409 17.4163 45.0861 17.4163C44.3314 17.4163 43.7195 18.0321 43.7195 18.7919C43.7195 19.5516 44.3314 20.1675 45.0861 20.1675Z" fill="#C1B9B9"/>
    <path d="M59.6552 20.1675C60.41 20.1675 61.0219 19.5516 61.0219 18.7919C61.0219 18.0321 60.41 17.4163 59.6552 17.4163C58.9005 17.4163 58.2886 18.0321 58.2886 18.7919C58.2886 19.5516 58.9005 20.1675 59.6552 20.1675Z" fill="#C1B9B9"/>
    <path d="M74.2243 20.1675C74.9791 20.1675 75.591 19.5516 75.591 18.7919C75.591 18.0321 74.9791 17.4163 74.2243 17.4163C73.4696 17.4163 72.8577 18.0321 72.8577 18.7919C72.8577 19.5516 73.4696 20.1675 74.2243 20.1675Z" fill="#C1B9B9"/>
    <path d="M88.7934 20.1675C89.5482 20.1675 90.16 19.5516 90.16 18.7919C90.16 18.0321 89.5482 17.4163 88.7934 17.4163C88.0387 17.4163 87.4268 18.0321 87.4268 18.7919C87.4268 19.5516 88.0387 20.1675 88.7934 20.1675Z" fill="#C1B9B9"/>
    <path d="M103.363 20.1675C104.117 20.1675 104.729 19.5516 104.729 18.7919C104.729 18.0321 104.117 17.4163 103.363 17.4163C102.608 17.4163 101.996 18.0321 101.996 18.7919C101.996 19.5516 102.608 20.1675 103.363 20.1675Z" fill="#C1B9B9"/>
    <path d="M117.944 20.1675C118.699 20.1675 119.31 19.5516 119.31 18.7919C119.31 18.0321 118.699 17.4163 117.944 17.4163C117.189 17.4163 116.577 18.0321 116.577 18.7919C116.577 19.5516 117.189 20.1675 117.944 20.1675Z" fill="#C1B9B9"/>
    <path d="M132.513 20.1675C133.268 20.1675 133.88 19.5516 133.88 18.7919C133.88 18.0321 133.268 17.4163 132.513 17.4163C131.758 17.4163 131.146 18.0321 131.146 18.7919C131.146 19.5516 131.758 20.1675 132.513 20.1675Z" fill="#C1B9B9"/>
    <path d="M20.487 37.5837C21.2418 37.5837 21.8537 36.9679 21.8537 36.2081C21.8537 35.4484 21.2418 34.8325 20.487 34.8325C19.7323 34.8325 19.1204 35.4484 19.1204 36.2081C19.1204 36.9679 19.7323 37.5837 20.487 37.5837Z" fill="#C1B9B9"/>
    <path d="M35.0683 37.5837C35.8231 37.5837 36.435 36.9679 36.435 36.2081C36.435 35.4484 35.8231 34.8325 35.0683 34.8325C34.3136 34.8325 33.7017 35.4484 33.7017 36.2081C33.7017 36.9679 34.3136 37.5837 35.0683 37.5837Z" fill="#C1B9B9"/>
    <path d="M49.6375 37.5837C50.3922 37.5837 51.0041 36.9679 51.0041 36.2081C51.0041 35.4484 50.3922 34.8325 49.6375 34.8325C48.8827 34.8325 48.2708 35.4484 48.2708 36.2081C48.2708 36.9679 48.8827 37.5837 49.6375 37.5837Z" fill="#C1B9B9"/>
    <path d="M64.2066 37.5837C64.9613 37.5837 65.5732 36.9679 65.5732 36.2081C65.5732 35.4484 64.9613 34.8325 64.2066 34.8325C63.4518 34.8325 62.8399 35.4484 62.8399 36.2081C62.8399 36.9679 63.4518 37.5837 64.2066 37.5837Z" fill="#C1B9B9"/>
    <path d="M78.7757 37.5837C79.5304 37.5837 80.1423 36.9679 80.1423 36.2081C80.1423 35.4484 79.5304 34.8325 78.7757 34.8325C78.0209 34.8325 77.4091 35.4484 77.4091 36.2081C77.4091 36.9679 78.0209 37.5837 78.7757 37.5837Z" fill="#C1B9B9"/>
    <path d="M93.3448 37.5837C94.0995 37.5837 94.7114 36.9679 94.7114 36.2081C94.7114 35.4484 94.0995 34.8325 93.3448 34.8325C92.59 34.8325 91.9781 35.4484 91.9781 36.2081C91.9781 36.9679 92.59 37.5837 93.3448 37.5837Z" fill="#C1B9B9"/>
    <path d="M107.926 37.5837C108.681 37.5837 109.293 36.9679 109.293 36.2081C109.293 35.4484 108.681 34.8325 107.926 34.8325C107.171 34.8325 106.559 35.4484 106.559 36.2081C106.559 36.9679 107.171 37.5837 107.926 37.5837Z" fill="#C1B9B9"/>
    <path d="M122.495 37.5837C123.25 37.5837 123.862 36.9679 123.862 36.2081C123.862 35.4484 123.25 34.8325 122.495 34.8325C121.74 34.8325 121.129 35.4484 121.129 36.2081C121.129 36.9679 121.74 37.5837 122.495 37.5837Z" fill="#C1B9B9"/>
    <path d="M137.064 37.5837C137.819 37.5837 138.431 36.9679 138.431 36.2081C138.431 35.4484 137.819 34.8325 137.064 34.8325C136.31 34.8325 135.698 35.4484 135.698 36.2081C135.698 36.9679 136.31 37.5837 137.064 37.5837Z" fill="#C1B9B9"/>
    <path d="M151.633 37.5837C152.388 37.5837 153 36.9679 153 36.2081C153 35.4484 152.388 34.8325 151.633 34.8325C150.879 34.8325 150.267 35.4484 150.267 36.2081C150.267 36.9679 150.879 37.5837 151.633 37.5837Z" fill="#C1B9B9"/>
    <path d="M1.36662 55C2.12138 55 2.73323 54.3841 2.73323 53.6244C2.73323 52.8647 2.12138 52.2488 1.36662 52.2488C0.611855 52.2488 0 52.8647 0 53.6244C0 54.3841 0.611855 55 1.36662 55Z" fill="#C1B9B9"/>
    <path d="M15.9357 55C16.6905 55 17.3023 54.3841 17.3023 53.6244C17.3023 52.8647 16.6905 52.2488 15.9357 52.2488C15.1809 52.2488 14.5691 52.8647 14.5691 53.6244C14.5691 54.3841 15.1809 55 15.9357 55Z" fill="#C1B9B9"/>
    <path d="M30.5048 55C31.2596 55 31.8714 54.3841 31.8714 53.6244C31.8714 52.8647 31.2596 52.2488 30.5048 52.2488C29.7501 52.2488 29.1382 52.8647 29.1382 53.6244C29.1382 54.3841 29.7501 55 30.5048 55Z" fill="#C1B9B9"/>
    <path d="M45.0861 55C45.8409 55 46.4527 54.3841 46.4527 53.6244C46.4527 52.8647 45.8409 52.2488 45.0861 52.2488C44.3314 52.2488 43.7195 52.8647 43.7195 53.6244C43.7195 54.3841 44.3314 55 45.0861 55Z" fill="#C1B9B9"/>
    <path d="M59.6552 55C60.41 55 61.0219 54.3841 61.0219 53.6244C61.0219 52.8647 60.41 52.2488 59.6552 52.2488C58.9005 52.2488 58.2886 52.8647 58.2886 53.6244C58.2886 54.3841 58.9005 55 59.6552 55Z" fill="#C1B9B9"/>
    <path d="M74.2243 55C74.9791 55 75.591 54.3841 75.591 53.6244C75.591 52.8647 74.9791 52.2488 74.2243 52.2488C73.4696 52.2488 72.8577 52.8647 72.8577 53.6244C72.8577 54.3841 73.4696 55 74.2243 55Z" fill="#C1B9B9"/>
    <path d="M88.7934 55C89.5482 55 90.16 54.3841 90.16 53.6244C90.16 52.8647 89.5482 52.2488 88.7934 52.2488C88.0387 52.2488 87.4268 52.8647 87.4268 53.6244C87.4268 54.3841 88.0387 55 88.7934 55Z" fill="#C1B9B9"/>
    <path d="M103.363 55C104.117 55 104.729 54.3841 104.729 53.6244C104.729 52.8647 104.117 52.2488 103.363 52.2488C102.608 52.2488 101.996 52.8647 101.996 53.6244C101.996 54.3841 102.608 55 103.363 55Z" fill="#C1B9B9"/>
    <path d="M117.944 55C118.699 55 119.31 54.3841 119.31 53.6244C119.31 52.8647 118.699 52.2488 117.944 52.2488C117.189 52.2488 116.577 52.8647 116.577 53.6244C116.577 54.3841 117.189 55 117.944 55Z" fill="#C1B9B9"/>
    <path d="M132.513 55C133.268 55 133.88 54.3841 133.88 53.6244C133.88 52.8647 133.268 52.2488 132.513 52.2488C131.758 52.2488 131.146 52.8647 131.146 53.6244C131.146 54.3841 131.758 55 132.513 55Z" fill="#C1B9B9"/>
  </g>
  <defs>
    <clipPath id="clip0_280_282">
      <rect width="153" height="55" fill="white"/>
    </clipPath>
  </defs>
</svg>