<svg xmlns="http://www.w3.org/2000/svg" width="125" height="139" viewBox="0 0 125 139" fill="none">
  <g style="mix-blend-mode:color-burn" clip-path="url(#clip0_280_323)">
    <path opacity="0.1" d="M54.4146 29.5891L53.8632 29.0252C52.8573 28.0182 51.4959 27.4528 50.0766 27.4528C48.6574 27.4528 47.2959 28.0182 46.29 29.0252L9.98636 65.5378C8.98511 66.5495 8.42296 67.9188 8.42296 69.3462C8.42296 70.7737 8.98511 72.143 9.98636 73.1546L10.547 73.7092C11.0431 74.2098 11.6325 74.607 12.2815 74.878C12.9305 75.1489 13.6263 75.2885 14.329 75.2885C15.0317 75.2885 15.7275 75.1489 16.3765 74.878C17.0255 74.607 17.6149 74.2098 18.111 73.7092L29.3146 62.4412C30.3204 61.4341 31.682 60.8688 33.1012 60.8688C34.5205 60.8688 35.882 61.4341 36.8878 62.4412L37.4393 63.005C37.937 63.5039 38.3318 64.0968 38.6013 64.7495C38.8707 65.4023 39.0094 66.1021 39.0094 66.8088C39.0094 67.5156 38.8707 68.2153 38.6013 68.8681C38.3318 69.5208 37.937 70.1137 37.4393 70.6126L-3.6252 111.923C-5.01577 113.317 -6.11908 114.974 -6.87188 116.798C-7.62467 118.622 -8.01215 120.578 -8.01215 122.553C-8.01215 124.528 -7.62467 126.484 -6.87188 128.308C-6.11908 130.132 -5.01577 131.789 -3.6252 133.183C-2.23865 134.582 -0.591351 135.691 1.22235 136.449C3.03605 137.206 4.98049 137.595 6.94421 137.595C8.90793 137.595 10.8523 137.206 12.666 136.449C14.4797 135.691 16.1271 134.582 17.5136 133.183L30.1785 120.445C31.1844 119.438 32.5459 118.873 33.9651 118.873C35.3844 118.873 36.7459 119.438 37.7518 120.445L38.3032 121.009C39.3061 122.018 39.8696 123.386 39.8696 124.813C39.8696 126.24 39.3061 127.608 38.3032 128.617L34.8199 132.12C33.4304 133.515 32.3281 135.172 31.576 136.996C30.8239 138.82 30.4368 140.776 30.4368 142.75C30.4368 144.725 30.8239 146.68 31.576 148.504C32.3281 150.329 33.4304 151.986 34.8199 153.381L41.0328 159.629C42.0358 160.638 42.5992 162.007 42.5992 163.433C42.5992 164.86 42.0358 166.228 41.0328 167.237L31.0057 177.257C30.0028 178.266 29.4393 179.634 29.4393 181.061C29.4393 182.488 30.0028 183.856 31.0057 184.865L31.5663 185.429C32.5694 186.437 33.9298 187.004 35.3483 187.004C36.7668 187.004 38.1273 186.437 39.1304 185.429L92.0786 132.176C93.0798 131.164 93.6419 129.795 93.6419 128.367C93.6419 126.94 93.0798 125.57 92.0786 124.559C91.0756 123.55 90.5122 122.182 90.5122 120.755C90.5122 119.328 91.0756 117.96 92.0786 116.951L120.634 88.1571C122.025 86.7626 123.128 85.1058 123.881 83.2817C124.634 81.4575 125.021 79.5019 125.021 77.5269C125.021 75.5519 124.634 73.5962 123.881 71.7721C123.128 69.9479 122.025 68.2912 120.634 66.8966C119.247 65.4992 117.6 64.3905 115.786 63.6341C113.972 62.8777 112.028 62.4883 110.065 62.4883C108.102 62.4883 106.157 62.8777 104.344 63.6341C102.53 64.3905 100.883 65.4992 99.4955 66.8966L95.8192 70.5941C94.8161 71.6028 93.4557 72.1695 92.0372 72.1695C90.6187 72.1695 89.2583 71.6028 88.2551 70.5941L87.6945 70.0303C86.6916 69.0214 86.1282 67.6531 86.1282 66.2265C86.1282 64.7998 86.6916 63.4315 87.6945 62.4227L103.319 46.6622C104.709 45.2676 105.813 43.6109 106.566 41.7867C107.318 39.9626 107.706 38.0069 107.706 36.0319C107.706 34.0569 107.318 32.1013 106.566 30.2772C105.813 28.453 104.709 26.7962 103.319 25.4017L96.5453 18.5983C95.544 17.5867 94.9819 16.2173 94.9819 14.7899C94.9819 13.3625 95.544 11.9932 96.5453 10.9815L97.8503 9.67813C98.8516 8.66647 99.4137 7.29715 99.4137 5.86973C99.4137 4.44231 98.8516 3.07299 97.8503 2.06133L97.2897 1.50673C96.7936 1.00617 96.2042 0.609007 95.5552 0.33801C94.9062 0.0670143 94.2104 -0.0724945 93.5077 -0.0724945C92.805 -0.0724945 92.1092 0.0670143 91.4602 0.33801C90.8112 0.609007 90.2218 1.00617 89.7257 1.50673L61.8684 29.5151C60.8797 30.5003 59.5482 31.0591 58.1565 31.0729C56.7648 31.0867 55.4225 30.5545 54.4146 29.5891Z" fill="#C1B9B9"/>
  </g>
  <defs>
    <clipPath id="clip0_280_323">
      <rect width="133" height="187" fill="white" transform="translate(-8)"/>
    </clipPath>
  </defs>
</svg>