<svg width="24" height="24" viewBox="0 0 24 24" fill="none" xmlns="http://www.w3.org/2000/svg">
<path fill-rule="evenodd" clip-rule="evenodd" d="M8.49093 18.3491C8.49093 18.3491 9.17473 19.0329 10.1418 19.0329H13.4478C13.4478 19.0329 14.4114 19.0329 15.0928 18.3515C15.0928 18.3515 15.7087 17.7355 15.7679 16.889C15.7679 16.889 16.14 16.6699 16.361 16.5109C16.361 16.5109 17.8601 15.4325 18.7154 13.8034C18.7154 13.8034 19.6 12.1185 19.6 10.2052C19.6 10.2052 19.6 6.98487 17.3143 4.70821C17.3143 4.70821 15.0299 2.43286 11.8 2.43286C11.8 2.43286 8.57006 2.43286 6.28569 4.70821C6.28569 4.70821 4 6.98487 4 10.2052C4 10.2052 4 12.1305 4.89518 13.8235C4.89518 13.8235 5.76082 15.4607 7.27579 16.5372C7.27579 16.5372 7.47828 16.6811 7.81327 16.8789C7.81327 16.8789 7.87189 17.73 8.49093 18.3491ZM13.4478 17.4329H10.1418C10.1418 17.4329 9.83747 17.4329 9.6223 17.2177C9.6223 17.2177 9.40714 17.0025 9.40714 16.6982C9.40714 16.6982 9.40714 15.9519 8.75604 15.5765C8.75604 15.5765 8.38489 15.3625 8.20257 15.2329C8.20257 15.2329 6.99755 14.3767 6.30963 13.0756C6.30963 13.0756 5.6 11.7335 5.6 10.2052C5.6 10.2052 5.6 7.64946 7.41482 5.84182C7.41482 5.84182 9.23095 4.03286 11.8 4.03286C11.8 4.03286 14.369 4.03286 16.1852 5.84182C16.1852 5.84182 18 7.64946 18 10.2052C18 10.2052 18 11.724 17.2988 13.0597C17.2988 13.0597 16.6191 14.3543 15.4267 15.212C15.4267 15.212 15.2301 15.3534 14.8246 15.5867C14.8246 15.5867 14.1741 15.9608 14.1741 16.7065C14.1741 16.7065 14.1741 17.0074 13.9614 17.2201C13.9614 17.2201 13.7486 17.4329 13.4478 17.4329ZM8.5 9C8.5 9.12984 8.53161 9.25774 8.59209 9.37264L10.1713 12.3726C10.242 12.507 10.3496 12.6185 10.4813 12.694C10.6654 12.7996 10.8838 12.8276 11.0886 12.7721C11.2934 12.7166 11.4677 12.5819 11.5732 12.3979L12.5952 10.6152L13.6038 12.3941C13.7461 12.6451 14.012 12.8 14.3 12.8C14.7418 12.8 15.1 12.4418 15.1 12C15.1 11.8617 15.0641 11.7257 14.9959 11.6054L13.295 8.60542C13.1903 8.42085 13.0166 8.28541 12.8121 8.2289C12.6076 8.17238 12.389 8.19943 12.2045 8.30407C12.0797 8.37479 11.9763 8.47773 11.905 8.60212L10.9091 10.3393L10.0079 8.62735C9.86956 8.36454 9.597 8.2 9.3 8.2C8.85817 8.2 8.5 8.55817 8.5 9ZM15 20.2H9.00001C8.55818 20.2 8.20001 20.5582 8.20001 21C8.20001 21.4418 8.55818 21.8 9.00001 21.8H15C15.4418 21.8 15.8 21.4418 15.8 21C15.8 20.5582 15.4418 20.2 15 20.2Z" fill="white"/>
</svg>
