<svg width="24" height="24" viewBox="0 0 24 24" fill="none" xmlns="http://www.w3.org/2000/svg">
<g clip-path="url(#clip0_28557_643)">
<path fill-rule="evenodd" clip-rule="evenodd" d="M6.45822 8.94748C6.49952 8.89592 6.54407 8.84609 6.59188 8.79829L11.5416 3.84854C12.6351 2.75508 14.408 2.75508 15.5014 3.84854L19.7441 8.09118C20.8375 9.18465 20.8375 10.9575 19.7441 12.051L14.7943 17.0007C14.7465 17.0485 14.6967 17.0931 14.6451 17.1344L14.6529 17.1422L12.9507 18.8443H18.8656C19.3074 18.8443 19.6656 19.2025 19.6656 19.6443C19.6656 20.0861 19.3074 20.4443 18.8656 20.4443H4.86555C4.42372 20.4443 4.06555 20.0861 4.06555 19.6443C4.06555 19.2025 4.42372 18.8443 4.86555 18.8443H8.43545L4.47055 14.8794C3.37708 13.7859 3.37708 12.0131 4.47055 10.9196L6.45045 8.93972L6.45822 8.94748ZM7.72325 9.92966C7.64514 10.0078 7.64514 10.1344 7.72325 10.2125L13.3801 15.8694C13.4582 15.9475 13.5848 15.9475 13.6629 15.8694L18.6127 10.9196C19.0813 10.451 19.0813 9.69118 18.6127 9.22255L14.3701 4.97991C13.9014 4.51129 13.1416 4.51128 12.673 4.97991L7.72325 9.92966ZM5.60192 13.748C5.13329 13.2794 5.13329 12.5196 5.60192 12.051L6.45045 11.2025L12.3901 17.1422L11.5416 17.9907C11.073 18.4593 10.3132 18.4593 9.84456 17.9907L5.60192 13.748Z" fill="white" fill-opacity="0.65"/>
</g>
<defs>
<clipPath id="clip0_28557_643">
<rect width="24" height="24" fill="white"/>
</clipPath>
</defs>
</svg>
