<svg xmlns="http://www.w3.org/2000/svg" width="41" height="40" viewBox="0 0 41 40" fill="none">
<path d="M3.83334 20C3.83334 10.8333 11.3333 3.33331 20.5 3.33331C23.0874 3.33331 25.6393 3.93573 27.9536 5.09286C30.2678 6.24999 32.2809 7.93004 33.8333 9.99998" stroke="#52B4FF" stroke-width="2" stroke-linecap="round" stroke-linejoin="round"/>
<path d="M8.83334 32.5C9.66668 30 10.5 25 10.5 20C10.5 18.8334 10.7 17.7167 11.0667 16.6667" stroke="#52B4FF" stroke-width="2" stroke-linecap="round" stroke-linejoin="round"/>
<path d="M29.3167 35.0333C29.5167 34.0333 30.0333 31.2 30.15 30" stroke="#52B4FF" stroke-width="2" stroke-linecap="round" stroke-linejoin="round"/>
<path d="M20.5 16.6667C19.6159 16.6667 18.7681 17.0179 18.143 17.643C17.5179 18.2681 17.1667 19.116 17.1667 20C17.1667 21.7 17 24.1834 16.7333 26.6667" stroke="#52B4FF" stroke-width="2" stroke-linecap="round" stroke-linejoin="round"/>
<path d="M14.9167 36.6666C15.2667 35.5666 15.6667 34.4666 15.8667 33.3333" stroke="#52B4FF" stroke-width="2" stroke-linecap="round" stroke-linejoin="round"/>
<path d="M23.8333 21.8666C23.8333 25.8333 23.8333 32.5 22.1667 36.6666" stroke="#52B4FF" stroke-width="2" stroke-linecap="round" stroke-linejoin="round"/>
<path d="M3.83334 26.6667H3.85001" stroke="#52B4FF" stroke-width="2" stroke-linecap="round" stroke-linejoin="round"/>
<path d="M36.8333 26.6667C37.1667 23.3334 37.0517 17.7434 36.8333 16.6667" stroke="#52B4FF" stroke-width="2" stroke-linecap="round" stroke-linejoin="round"/>
<path d="M15.5 11.3333C17.0207 10.4554 18.7457 9.99331 20.5016 9.99359C22.2575 9.99387 23.9824 10.4565 25.5028 11.3349C27.0232 12.2134 28.2854 13.4767 29.1627 14.9978C30.0399 16.5188 30.5011 18.2441 30.5 20C30.5 20.7833 30.5 21.95 30.4667 23.3333" stroke="#52B4FF" stroke-width="2" stroke-linecap="round" stroke-linejoin="round"/>
</svg>