<svg width="24" height="24" viewBox="0 0 24 24" fill="none" xmlns="http://www.w3.org/2000/svg">
<path fill-rule="evenodd" clip-rule="evenodd" d="M6.22703 4.99995V6.27017C6.22703 7.01575 6.75424 7.54296 6.75424 7.54296C7.28144 8.07017 8.02703 8.07017 8.02703 8.07017H19C19.7456 8.07017 20.2728 7.54296 20.2728 7.54296C20.8 7.01575 20.8 6.27017 20.8 6.27017V4.99995C20.8 4.25437 20.2728 3.72716 20.2728 3.72716C19.7456 3.19995 19 3.19995 19 3.19995H8.02703C7.28144 3.19995 6.75424 3.72716 6.75424 3.72716C6.22703 4.25437 6.22703 4.99995 6.22703 4.99995ZM4.21622 3.25769C3.77439 3.25769 3.41622 3.61586 3.41622 4.05769V5.21919C3.41622 5.66102 3.77439 6.01919 4.21622 6.01919C4.65805 6.01919 5.01622 5.66102 5.01622 5.21919V4.05769C5.01622 3.61586 4.65805 3.25769 4.21622 3.25769ZM7.82703 6.27017C7.82703 6.27017 7.82703 6.47017 8.02703 6.47017H19C19 6.47017 19.2 6.47017 19.2 6.27017V4.99995C19.2 4.99995 19.2 4.79995 19 4.79995H8.02703C8.02703 4.79995 7.82703 4.79995 7.82703 4.99995V6.27017ZM3.41622 10.4459V8.12293C3.41622 7.6811 3.77439 7.32293 4.21622 7.32293C4.65805 7.32293 5.01622 7.6811 5.01622 8.12293V10.4459C5.01622 10.8878 4.65805 11.2459 4.21622 11.2459C3.77439 11.2459 3.41622 10.8878 3.41622 10.4459ZM6.22703 11.9931V10.7229C6.22703 10.7229 6.22703 9.97727 6.75424 9.45006C6.75424 9.45006 7.28144 8.92285 8.02703 8.92285H19C19 8.92285 19.7456 8.92285 20.2728 9.45006C20.2728 9.45006 20.8 9.97727 20.8 10.7229V11.9931C20.8 11.9931 20.8 12.7387 20.2728 13.2659C20.2728 13.2659 19.7456 13.7931 19 13.7931H8.02703C8.02703 13.7931 7.28144 13.7931 6.75424 13.2659C6.75424 13.2659 6.22703 12.7387 6.22703 11.9931ZM8.02703 12.1931C7.82703 12.1931 7.82703 11.9931 7.82703 11.9931V10.7229C7.82703 10.5229 8.02703 10.5229 8.02703 10.5229H19C19.2 10.5229 19.2 10.7229 19.2 10.7229V11.9931C19.2 12.1931 19 12.1931 19 12.1931H8.02703ZM3.41622 13.3497V15.6727C3.41622 16.1145 3.77439 16.4727 4.21622 16.4727C4.65805 16.4727 5.01622 16.1145 5.01622 15.6727V13.3497C5.01622 12.9078 4.65805 12.5497 4.21622 12.5497C3.77439 12.5497 3.41622 12.9078 3.41622 13.3497ZM10.2353 15.6285C10.2445 15.6201 10.2536 15.6115 10.2624 15.6026C10.5748 15.2902 10.5748 14.7837 10.2624 14.4713C9.96031 14.1692 9.47414 14.1578 9.1582 14.4454L6.68845 16.6936C6.6058 16.7689 6.53984 16.8606 6.4948 16.9629C6.45516 17.0529 6.43247 17.1495 6.42785 17.2477C6.42729 17.2597 6.427 17.2717 6.42697 17.2837L6.42697 17.2852C6.42697 17.3777 6.44299 17.4694 6.47432 17.5564C6.51851 17.679 6.59201 17.7891 6.68844 17.8768L6.69181 17.8799L9.158 20.1249C9.47414 20.4127 9.96031 20.4013 10.2624 20.0992C10.5748 19.7868 10.5748 19.2802 10.2624 18.9678C10.2536 18.959 10.2445 18.9503 10.2353 18.9419L9.29421 18.0852H19.3354C19.7772 18.0852 20.1354 17.7271 20.1354 17.2852C20.1354 16.8434 19.7772 16.4852 19.3354 16.4852H9.29417L10.2353 15.6285ZM3.41622 18.5764V19.7379C3.41622 20.1797 3.77439 20.5379 4.21622 20.5379C4.65805 20.5379 5.01622 20.1797 5.01622 19.7379V18.5764C5.01622 18.1346 4.65805 17.7764 4.21622 17.7764C3.77439 17.7764 3.41622 18.1346 3.41622 18.5764Z" fill="white"/>
</svg>
