<svg width="24" height="24" viewBox="0 0 24 24" fill="none" xmlns="http://www.w3.org/2000/svg">
<path fill-rule="evenodd" clip-rule="evenodd" d="M15.2345 4.34644C15.4702 4.20064 15.6136 3.94324 15.6136 3.66609C15.6136 3.22426 15.2555 2.86609 14.8136 2.86609C14.665 2.86609 14.5192 2.90752 14.3925 2.98591L11.5791 4.72619C11.2034 4.95862 11.0872 5.45165 11.3196 5.8274C11.4654 6.0631 11.7228 6.20654 12 6.20654C12 6.20654 15.1017 6.20654 17.2607 7.43727C17.2607 7.43727 19.2 8.5428 19.2 9.96698C19.2 9.96698 19.2 10.8027 18.3282 11.6907C18.1595 11.5805 18.053 11.5198 18.053 11.5198C15.5257 10.0791 12 10.0791 12 10.0791C8.47428 10.0791 5.94695 11.5198 5.94695 11.5198C5.85517 11.5721 5.76632 11.6257 5.68044 11.6802C5.2271 11.2335 4.8 10.6353 4.8 9.96698C4.8 9.96698 4.8 9.02326 5.72753 8.16518C5.72753 8.16518 6.7428 7.22594 8.50415 6.69651L8.50531 6.69617C8.84353 6.59454 9.07511 6.28316 9.07511 5.93C9.07511 5.48817 8.71694 5.13 8.27511 5.13C8.19713 5.13 8.11958 5.1414 8.04491 5.16384C8.04491 5.16384 5.92828 5.7998 4.64099 6.99069C4.64099 6.99069 3.2 8.32378 3.2 9.96698C3.2 9.96698 3.2 11.1592 3.98621 12.2188C3.98621 12.2188 4.13526 12.4197 4.41773 12.7061C4.0796 13.0525 3.90461 13.3045 3.90461 13.3045C3.2 14.3191 3.2 15.4395 3.2 15.4395C3.2 16.5599 3.90461 17.5745 3.90461 17.5745C4.61789 18.6016 5.94695 19.3592 5.94695 19.3592C8.47428 20.8 12 20.8 12 20.8C15.5257 20.8 18.053 19.3592 18.053 19.3592C19.3821 18.6016 20.0954 17.5745 20.0954 17.5745C20.8 16.5599 20.8 15.4395 20.8 15.4395C20.8 14.3191 20.0954 13.3045 20.0954 13.3045C19.9478 13.092 19.7739 12.8911 19.5909 12.706C19.7425 12.5531 19.8869 12.3898 20.0138 12.2188C20.0138 12.2188 20.8 11.1592 20.8 9.96698C20.8 9.96698 20.8 8.77479 20.0138 7.71516C20.0138 7.71516 19.3064 6.76172 18.053 6.04726C18.053 6.04726 16.468 5.1437 14.4902 4.80681L15.2345 4.34644ZM16.8437 12.7032C16.0735 12.3527 14.2948 11.6791 12 11.6791C12 11.6791 9.25585 11.6791 7.13321 12.7032C9.25585 13.7274 12 13.7274 12 13.7274C14.2948 13.7274 16.0735 13.0538 16.8437 12.7032ZM5.68041 13.7263C5.76629 13.7808 5.85515 13.8344 5.94695 13.8867C5.94695 13.8867 8.47428 15.3274 12 15.3274C12 15.3274 15.5257 15.3274 18.053 13.8867C18.053 13.8867 18.1598 13.8259 18.3285 13.716C19.2 14.6039 19.2 15.4395 19.2 15.4395C19.2 16.8637 17.2607 17.9692 17.2607 17.9692C15.1017 19.2 12 19.2 12 19.2C8.8983 19.2 6.73933 17.9692 6.73933 17.9692C4.8 16.8637 4.8 15.4395 4.8 15.4395C4.8 14.7712 5.22708 14.173 5.68041 13.7263Z" fill="white"/>
</svg>
