<!DOCTYPE svg PUBLIC "-//W3C//DTD SVG 1.1//EN" "http://www.w3.org/Graphics/SVG/1.1/DTD/svg11.dtd">
<!-- Uploaded to: SVG Repo, www.svgrepo.com, Transformed by: SVG Repo Mixer Tools -->
<svg fill="#000000" width="800px" height="800px" viewBox="0 0 24 24" id="list-square-2" data-name="Flat Color" xmlns="http://www.w3.org/2000/svg" class="icon flat-color">
<g id="SVGRepo_bgCarrier" stroke-width="0"/>
<g id="SVGRepo_tracerCarrier" stroke-linecap="round" stroke-linejoin="round"/>
<g id="SVGRepo_iconCarrier">
<rect id="primary" x="2" y="2" width="20" height="20" rx="2" style="fill: #5f67fc;"/>
<path id="secondary" d="M5,16a1,1,0,0,1,1-1h7a1,1,0,0,1,0,2H6A1,1,0,0,1,5,16Zm0-4a1,1,0,0,1,1-1h7a1,1,0,0,1,0,2H6A1,1,0,0,1,5,12ZM5,8A1,1,0,0,1,6,7h7a1,1,0,0,1,0,2H6A1,1,0,0,1,5,8ZM16,8a1.5,1.5,0,1,0,1.5-1.5A1.5,1.5,0,0,0,16,8Zm0,4a1.5,1.5,0,1,0,1.5-1.5A1.5,1.5,0,0,0,16,12Zm0,4a1.5,1.5,0,1,0,1.5-1.5A1.5,1.5,0,0,0,16,16Z" style="fill: #ffffff;"/>
</g>
</svg>