<svg width="24" height="24" viewBox="0 0 24 24" fill="none" xmlns="http://www.w3.org/2000/svg">
<g clip-path="url(#clip0_2788_2653)">
<path fill-rule="evenodd" clip-rule="evenodd" d="M12.1174 6.21443C13.5601 6.21443 14.7296 5.01516 14.7296 3.53579C14.7296 2.05641 13.5601 0.857147 12.1174 0.857147C10.6747 0.857147 9.50512 2.05641 9.50512 3.53579C9.50512 5.01516 10.6747 6.21443 12.1174 6.21443ZM5.32553 10.993V14.0494C5.32553 14.7521 5.88106 15.3218 6.56635 15.3218C7.25163 15.3218 7.80716 14.7521 7.80716 14.0494V11.8396L8.98267 10.5002L8.98262 6.85715L8.98278 13.8081L10.9418 15.9509L14.5714 22.0307C14.8286 22.4725 15.2936 22.7431 15.7954 22.7431C16.8898 22.7431 17.576 21.5307 17.033 20.5563L13.2103 13.7604C13.6364 13.6252 13.9459 13.2179 13.9459 12.7366L13.9459 8.73215C13.9459 7.69659 13.1273 6.85715 12.1174 6.85715H8.98262L5.69042 10.1795C5.45882 10.3831 5.32553 10.6803 5.32553 10.993ZM14.599 9.38589C14.599 10.2735 15.3008 10.993 16.1664 10.993H17.6685C18.4259 10.993 19.0398 10.3633 19.0398 9.58667C19.0398 8.81 18.4259 8.18042 17.6685 8.18042H15.3827L15.0841 7.67045C14.9478 7.43749 14.599 7.53647 14.599 7.80814V9.38589ZM7.33007 22.7411C6.16768 22.7411 5.47222 21.4149 6.1132 20.4206L8.98278 16.6207V15.928C8.98278 15.6894 9.26403 15.5698 9.42859 15.7386L10.2888 16.6207L11.2031 18.2278L8.57142 22.0307C8.30577 22.4722 7.83596 22.7411 7.33007 22.7411Z" fill="white"/>
</g>
<defs>
<clipPath id="clip0_2788_2653">
<rect width="13.7143" height="21.8859" fill="white" transform="translate(5.32553 0.857147)"/>
</clipPath>
</defs>
</svg>
