<svg width="24" height="24" viewBox="0 0 24 24" fill="none" xmlns="http://www.w3.org/2000/svg">
<path fill-rule="evenodd" clip-rule="evenodd" d="M3.2 18V5.99995C3.2 5.99995 3.2 4.84015 4.0201 4.02005C4.0201 4.02005 4.8402 3.19995 6 3.19995H18C18 3.19995 19.1598 3.19995 19.9799 4.02005C19.9799 4.02005 20.8 4.84015 20.8 5.99995V18C20.8 18 20.8 19.1597 19.9799 19.9798C19.9799 19.9798 19.1598 20.7999 18 20.7999H6C6 20.7999 4.8402 20.7999 4.0201 19.9798C4.0201 19.9798 3.2 19.1597 3.2 18ZM4.8 18C4.8 18 4.8 18.497 5.15147 18.8485C5.15147 18.8485 5.50294 19.2 6 19.2H18C18 19.2 18.4971 19.2 18.8485 18.8485C18.8485 18.8485 19.2 18.497 19.2 18V5.99995C19.2 5.99995 19.2 5.5029 18.8485 5.15142C18.8485 5.15142 18.4971 4.79995 18 4.79995H6C6 4.79995 5.50294 4.79995 5.15147 5.15142C5.15147 5.15142 4.8 5.50289 4.8 5.99995V18ZM9 8.19995H15C15.4418 8.19995 15.8 8.55812 15.8 8.99995C15.8 9.44178 15.4418 9.79995 15 9.79995H12.8V15.5C12.8 15.9418 12.4418 16.3 12 16.3C11.5582 16.3 11.2 15.9418 11.2 15.5V9.79995H9C8.55817 9.79995 8.2 9.44178 8.2 8.99995C8.2 8.55812 8.55817 8.19995 9 8.19995Z" fill="white"/>
</svg>
